<?xml version="1.0" encoding="UTF-8" standalone="no"?>
<!DOCTYPE svg PUBLIC "-//W3C//DTD SVG 1.1//EN" "http://www.w3.org/Graphics/SVG/1.1/DTD/svg11.dtd">
<svg xmlns="http://www.w3.org/2000/svg" version="1.1" viewBox="0.00 0.00 301.00 318.00">
<g stroke-width="2.00" fill="none" stroke-linecap="butt">
<path stroke="#535353" vector-effect="non-scaling-stroke" d="
  M 60.44 225.19
  Q 86.54 226.42 111.99 225.57"
/>
<path stroke="#6d6d6d" vector-effect="non-scaling-stroke" d="
  M 111.99 225.57
  Q 128.67 225.47 145.40 225.49
  Q 151.86 225.50 157.62 225.20
  C 189.93 223.49 218.70 207.44 238.18 182.24
  C 272.93 137.28 266.89 72.27 223.69 34.53
  Q 192.27 7.09 150.00 7.04
  Q 131.39 7.01 112.79 6.86"
/>
<path stroke="#535353" vector-effect="non-scaling-stroke" d="
  M 112.79 6.86
  L 55.78 6.96"
/>
<path stroke="#767676" vector-effect="non-scaling-stroke" d="
  M 55.78 6.96
  L 45.59 6.85
  A 0.58 0.58 0.0 0 0 45.01 7.43
  L 44.97 31.02
  A 0.59 0.59 0.0 0 0 45.55 31.61
  Q 76.46 32.13 99.51 51.31
  Q 121.99 70.03 128.02 99.01
  C 132.59 120.91 128.40 144.66 115.49 163.21
  Q 108.34 173.47 100.54 180.37
  C 85.78 193.41 65.41 201.27 45.54 200.51
  Q 44.99 200.49 44.99 201.04
  L 45.00 225.08
  Q 45.00 225.71 45.63 225.69
  L 60.44 225.19"
/>
<path stroke="#c9c9c9" vector-effect="non-scaling-stroke" d="
  M 55.78 6.96
  C 59.01 7.59 62.22 7.90 65.35 8.74
  C 69.60 9.88 74.36 10.81 78.17 12.03
  Q 98.34 18.51 114.67 31.85"
/>
<path stroke="#767676" vector-effect="non-scaling-stroke" d="
  M 114.67 31.85
  Q 129.60 44.53 139.49 60.81"
/>
<path stroke="#c9c9c9" vector-effect="non-scaling-stroke" d="
  M 139.49 60.81
  Q 142.34 66.06 144.73 71.26
  Q 147.87 78.07 149.98 85.09"
/>
<path stroke="#767676" vector-effect="non-scaling-stroke" d="
  M 149.98 85.09
  Q 157.37 110.95 152.44 137.23
  Q 151.90 140.15 149.98 147.25"
/>
<path stroke="#c9c9c9" vector-effect="non-scaling-stroke" d="
  M 149.98 147.25
  Q 145.94 160.21 139.42 171.48
  Q 139.36 171.59 139.53 172.03"
/>
<path stroke="#767676" vector-effect="non-scaling-stroke" d="
  M 139.53 172.03
  Q 138.96 172.09 138.63 172.63
  Q 128.82 188.35 114.94 200.46"
/>
<path stroke="#c9c9c9" vector-effect="non-scaling-stroke" d="
  M 114.94 200.46
  Q 91.84 218.89 60.44 225.19"
/>
<path stroke="#535353" vector-effect="non-scaling-stroke" d="
  M 169.66 143.53
  Q 159.83 148.02 149.98 147.25"
/>
<path stroke="#c0c0c0" vector-effect="non-scaling-stroke" d="
  M 112.79 6.86
  L 112.12 7.06
  Q 111.39 7.28 112.04 7.69
  Q 127.19 17.15 139.88 31.45"
/>
<path stroke="#535353" vector-effect="non-scaling-stroke" d="
  M 139.88 31.45
  L 114.67 31.85"
/>
<path stroke="#535353" vector-effect="non-scaling-stroke" d="
  M 143.81 200.88
  L 115.13 200.69
  Q 115.00 200.69 114.98 200.57
  Q 114.88 200.01 114.94 200.46"
/>
<path stroke="#535353" vector-effect="non-scaling-stroke" d="
  M 139.53 172.03
  L 160.09 171.93"
/>
<path stroke="#6d6d6d" vector-effect="non-scaling-stroke" d="
  M 160.09 171.93
  C 183.83 169.54 203.58 151.77 208.86 129.09
  C 213.80 107.86 206.30 85.49 188.75 72.21
  Q 175.58 62.24 159.60 60.76"
/>
<path stroke="#535353" vector-effect="non-scaling-stroke" d="
  M 159.60 60.76
  L 139.49 60.81"
/>
<path stroke="#c0c0c0" vector-effect="non-scaling-stroke" d="
  M 159.60 60.76
  Q 166.52 73.45 169.30 88.69"
/>
<path stroke="#535353" vector-effect="non-scaling-stroke" d="
  M 169.30 88.69
  Q 161.99 85.71 159.25 85.54
  Q 155.01 85.27 149.98 85.09"
/>
<path stroke="#c0c0c0" vector-effect="non-scaling-stroke" d="
  M 160.09 171.93
  Q 166.15 158.14 169.66 143.53"
/>
<path stroke="#6d6d6d" vector-effect="non-scaling-stroke" d="
  M 169.66 143.53
  Q 178.63 138.49 182.83 129.76
  Q 190.87 113.04 179.58 97.46
  Q 176.06 92.60 169.30 88.69"
/>
<path stroke="#c0c0c0" vector-effect="non-scaling-stroke" d="
  M 111.99 225.57
  L 112.09 225.04
  Q 112.18 224.52 112.62 224.24
  Q 127.36 214.79 139.22 202.05
  Q 139.55 201.69 140.03 201.60
  L 143.81 200.88"
/>
<path stroke="#6d6d6d" vector-effect="non-scaling-stroke" d="
  M 143.81 200.88
  Q 157.72 200.94 161.26 200.45
  Q 201.54 194.85 223.11 161.08
  Q 239.17 135.93 235.61 106.55
  Q 231.11 69.31 200.41 47.36
  Q 181.97 34.18 159.08 32.09
  Q 154.50 31.67 149.47 31.65
  Q 144.14 31.63 139.88 31.45"
/>
<path stroke="#767676" vector-effect="non-scaling-stroke" d="
  M 70.52 134.43
  Q 61.62 146.62 45.67 147.41
  Q 45.17 147.43 45.18 147.93
  L 45.26 171.46
  Q 45.26 171.98 45.78 171.97
  C 68.47 171.53 87.57 158.42 96.58 137.63
  C 104.29 119.82 101.50 98.73 90.13 83.16
  C 80.18 69.55 62.90 60.58 45.83 60.57
  Q 45.21 60.57 45.21 61.19
  L 45.25 84.47
  Q 45.25 85.07 45.85 85.08
  Q 57.94 85.40 66.83 93.72
  C 77.91 104.08 79.49 122.13 70.52 134.43"
/>
<path stroke="#6d6d6d" vector-effect="non-scaling-stroke" d="
  M 12.52 258.39
  L 12.44 302.51
  A 0.41 0.41 0.0 0 0 12.85 302.92
  L 32.21 302.96
  A 22.77 22.41 0.1 0 0 55.02 280.59
  L 55.02 280.47
  A 22.77 22.41 0.1 0 0 32.29 258.02
  L 12.93 257.98
  A 0.41 0.41 0.0 0 0 12.52 258.39"
/>
<path stroke="#6d6d6d" vector-effect="non-scaling-stroke" d="
  M 72.91 302.92
  A 0.42 0.42 0.0 0 0 73.31 302.64
  L 75.74 295.78
  A 0.42 0.42 0.0 0 1 76.14 295.50
  L 90.87 295.48
  A 0.42 0.42 0.0 0 1 91.27 295.76
  L 93.64 302.62
  A 0.42 0.42 0.0 0 0 94.04 302.90
  L 105.34 302.90
  A 0.42 0.42 0.0 0 0 105.73 302.34
  L 89.59 258.28
  A 0.42 0.42 0.0 0 0 89.20 258.00
  L 77.72 258.03
  A 0.42 0.42 0.0 0 0 77.33 258.31
  L 61.26 302.34
  A 0.42 0.42 0.0 0 0 61.65 302.90
  L 72.91 302.92"
/>
<path stroke="#6d6d6d" vector-effect="non-scaling-stroke" d="
  M 143.04 258.00
  A 0.32 0.32 0.0 0 0 142.72 258.32
  L 142.73 279.10
  A 0.32 0.32 0.0 0 1 142.14 279.27
  L 128.71 258.17
  A 0.32 0.32 0.0 0 0 128.44 258.02
  L 117.55 258.00
  A 0.32 0.32 0.0 0 0 117.23 258.32
  L 117.24 302.61
  A 0.32 0.32 0.0 0 0 117.56 302.93
  L 128.38 302.88
  A 0.32 0.32 0.0 0 0 128.70 302.56
  L 128.60 278.98
  A 0.32 0.32 0.0 0 1 129.19 278.80
  L 144.43 302.73
  A 0.32 0.32 0.0 0 0 144.69 302.88
  L 153.73 302.92
  A 0.32 0.32 0.0 0 0 154.05 302.60
  L 154.05 258.32
  A 0.32 0.32 0.0 0 0 153.73 258.00
  L 143.04 258.00"
/>
<path stroke="#6d6d6d" vector-effect="non-scaling-stroke" d="
  M 181.31 258.28
  A 0.26 0.26 0.0 0 0 181.05 258.02
  L 170.21 258.02
  A 0.26 0.26 0.0 0 0 169.95 258.28
  L 169.95 302.62
  A 0.26 0.26 0.0 0 0 170.21 302.88
  L 181.05 302.88
  A 0.26 0.26 0.0 0 0 181.31 302.62
  L 181.31 258.28"
/>
<path stroke="#6d6d6d" vector-effect="non-scaling-stroke" d="
  M 222.17 295.50
  A 0.35 0.35 0.0 0 1 222.50 295.74
  L 224.82 302.68
  A 0.35 0.35 0.0 0 0 225.15 302.92
  L 236.60 302.83
  A 0.35 0.35 0.0 0 0 236.93 302.36
  L 220.77 258.25
  A 0.35 0.35 0.0 0 0 220.45 258.02
  L 208.88 257.99
  A 0.35 0.35 0.0 0 0 208.55 258.22
  L 192.43 302.42
  A 0.35 0.35 0.0 0 0 192.76 302.89
  L 204.17 302.91
  A 0.35 0.35 0.0 0 0 204.50 302.67
  L 206.93 295.72
  A 0.35 0.35 0.0 0 1 207.26 295.48
  L 222.17 295.50"
/>
<path stroke="#6d6d6d" vector-effect="non-scaling-stroke" d="
  M 282.43 279.84
  L 282.40 302.28
  Q 282.40 302.90 283.02 302.90
  L 292.94 302.90
  Q 293.53 302.90 293.53 302.31
  L 293.54 258.53
  Q 293.54 258.02 293.03 258.02
  L 283.51 257.99
  A 2.23 2.23 0.0 0 0 281.60 259.07
  L 271.39 276.18
  A 0.79 0.78 -44.9 0 1 270.04 276.18
  L 259.49 258.55
  A 1.09 1.08 -15.7 0 0 258.54 258.02
  L 248.35 258.03
  A 0.63 0.62 0.0 0 0 247.72 258.65
  L 247.74 302.33
  Q 247.75 302.92 248.33 302.92
  L 258.70 302.86
  Q 259.25 302.86 259.25 302.30
  L 259.11 279.97
  Q 259.10 278.68 259.76 279.78
  L 268.64 294.60
  A 2.46 2.45 -45.0 0 0 272.85 294.60
  L 281.82 279.67
  Q 282.43 278.66 282.43 279.84"
/>
<path stroke="#6d6d6d" vector-effect="non-scaling-stroke" d="
  M 23.92 268.78
  L 23.92 292.34
  A 0.28 0.28 0.0 0 0 24.20 292.62
  L 31.46 292.62
  A 12.34 11.91 0.0 0 0 43.80 280.71
  L 43.80 280.41
  A 12.34 11.91 -0.0 0 0 31.46 268.50
  L 24.20 268.50
  A 0.28 0.28 0.0 0 0 23.92 268.78"
/>
<path stroke="#6d6d6d" vector-effect="non-scaling-stroke" d="
  M 79.96 284.34
  A 0.45 0.45 0.0 0 0 80.38 284.95
  L 86.56 284.97
  A 0.45 0.45 0.0 0 0 86.98 284.37
  L 83.92 275.81
  A 0.45 0.45 0.0 0 0 83.08 275.81
  L 79.96 284.34"
/>
<path stroke="#6d6d6d" vector-effect="non-scaling-stroke" d="
  M 211.14 284.42
  A 0.40 0.40 0.0 0 0 211.51 284.95
  L 217.79 284.99
  A 0.40 0.40 0.0 0 0 218.17 284.45
  L 215.08 275.57
  A 0.40 0.40 0.0 0 0 214.32 275.56
  L 211.14 284.42"
/>
</g>
<path fill="#000000" d="
  M 0.00 0.00
  L 301.00 0.00
  L 301.00 318.00
  L 0.00 318.00
  L 0.00 0.00
  Z
  M 60.44 225.19
  Q 86.54 226.42 111.99 225.57
  Q 128.67 225.47 145.40 225.49
  Q 151.86 225.50 157.62 225.20
  C 189.93 223.49 218.70 207.44 238.18 182.24
  C 272.93 137.28 266.89 72.27 223.69 34.53
  Q 192.27 7.09 150.00 7.04
  Q 131.39 7.01 112.79 6.86
  L 55.78 6.96
  L 45.59 6.85
  A 0.58 0.58 0.0 0 0 45.01 7.43
  L 44.97 31.02
  A 0.59 0.59 0.0 0 0 45.55 31.61
  Q 76.46 32.13 99.51 51.31
  Q 121.99 70.03 128.02 99.01
  C 132.59 120.91 128.40 144.66 115.49 163.21
  Q 108.34 173.47 100.54 180.37
  C 85.78 193.41 65.41 201.27 45.54 200.51
  Q 44.99 200.49 44.99 201.04
  L 45.00 225.08
  Q 45.00 225.71 45.63 225.69
  L 60.44 225.19
  Z
  M 70.52 134.43
  Q 61.62 146.62 45.67 147.41
  Q 45.17 147.43 45.18 147.93
  L 45.26 171.46
  Q 45.26 171.98 45.78 171.97
  C 68.47 171.53 87.57 158.42 96.58 137.63
  C 104.29 119.82 101.50 98.73 90.13 83.16
  C 80.18 69.55 62.90 60.58 45.83 60.57
  Q 45.21 60.57 45.21 61.19
  L 45.25 84.47
  Q 45.25 85.07 45.85 85.08
  Q 57.94 85.40 66.83 93.72
  C 77.91 104.08 79.49 122.13 70.52 134.43
  Z
  M 12.52 258.39
  L 12.44 302.51
  A 0.41 0.41 0.0 0 0 12.85 302.92
  L 32.21 302.96
  A 22.77 22.41 0.1 0 0 55.02 280.59
  L 55.02 280.47
  A 22.77 22.41 0.1 0 0 32.29 258.02
  L 12.93 257.98
  A 0.41 0.41 0.0 0 0 12.52 258.39
  Z
  M 72.91 302.92
  A 0.42 0.42 0.0 0 0 73.31 302.64
  L 75.74 295.78
  A 0.42 0.42 0.0 0 1 76.14 295.50
  L 90.87 295.48
  A 0.42 0.42 0.0 0 1 91.27 295.76
  L 93.64 302.62
  A 0.42 0.42 0.0 0 0 94.04 302.90
  L 105.34 302.90
  A 0.42 0.42 0.0 0 0 105.73 302.34
  L 89.59 258.28
  A 0.42 0.42 0.0 0 0 89.20 258.00
  L 77.72 258.03
  A 0.42 0.42 0.0 0 0 77.33 258.31
  L 61.26 302.34
  A 0.42 0.42 0.0 0 0 61.65 302.90
  L 72.91 302.92
  Z
  M 143.04 258.00
  A 0.32 0.32 0.0 0 0 142.72 258.32
  L 142.73 279.10
  A 0.32 0.32 0.0 0 1 142.14 279.27
  L 128.71 258.17
  A 0.32 0.32 0.0 0 0 128.44 258.02
  L 117.55 258.00
  A 0.32 0.32 0.0 0 0 117.23 258.32
  L 117.24 302.61
  A 0.32 0.32 0.0 0 0 117.56 302.93
  L 128.38 302.88
  A 0.32 0.32 0.0 0 0 128.70 302.56
  L 128.60 278.98
  A 0.32 0.32 0.0 0 1 129.19 278.80
  L 144.43 302.73
  A 0.32 0.32 0.0 0 0 144.69 302.88
  L 153.73 302.92
  A 0.32 0.32 0.0 0 0 154.05 302.60
  L 154.05 258.32
  A 0.32 0.32 0.0 0 0 153.73 258.00
  L 143.04 258.00
  Z
  M 181.31 258.28
  A 0.26 0.26 0.0 0 0 181.05 258.02
  L 170.21 258.02
  A 0.26 0.26 0.0 0 0 169.95 258.28
  L 169.95 302.62
  A 0.26 0.26 0.0 0 0 170.21 302.88
  L 181.05 302.88
  A 0.26 0.26 0.0 0 0 181.31 302.62
  L 181.31 258.28
  Z
  M 222.17 295.50
  A 0.35 0.35 0.0 0 1 222.50 295.74
  L 224.82 302.68
  A 0.35 0.35 0.0 0 0 225.15 302.92
  L 236.60 302.83
  A 0.35 0.35 0.0 0 0 236.93 302.36
  L 220.77 258.25
  A 0.35 0.35 0.0 0 0 220.45 258.02
  L 208.88 257.99
  A 0.35 0.35 0.0 0 0 208.55 258.22
  L 192.43 302.42
  A 0.35 0.35 0.0 0 0 192.76 302.89
  L 204.17 302.91
  A 0.35 0.35 0.0 0 0 204.50 302.67
  L 206.93 295.72
  A 0.35 0.35 0.0 0 1 207.26 295.48
  L 222.17 295.50
  Z
  M 282.43 279.84
  L 282.40 302.28
  Q 282.40 302.90 283.02 302.90
  L 292.94 302.90
  Q 293.53 302.90 293.53 302.31
  L 293.54 258.53
  Q 293.54 258.02 293.03 258.02
  L 283.51 257.99
  A 2.23 2.23 0.0 0 0 281.60 259.07
  L 271.39 276.18
  A 0.79 0.78 -44.9 0 1 270.04 276.18
  L 259.49 258.55
  A 1.09 1.08 -15.7 0 0 258.54 258.02
  L 248.35 258.03
  A 0.63 0.62 0.0 0 0 247.72 258.65
  L 247.74 302.33
  Q 247.75 302.92 248.33 302.92
  L 258.70 302.86
  Q 259.25 302.86 259.25 302.30
  L 259.11 279.97
  Q 259.10 278.68 259.76 279.78
  L 268.64 294.60
  A 2.46 2.45 -45.0 0 0 272.85 294.60
  L 281.82 279.67
  Q 282.43 278.66 282.43 279.84
  Z"
/>
<path fill="#ececec" d="
  M 55.78 6.96
  C 59.01 7.59 62.22 7.90 65.35 8.74
  C 69.60 9.88 74.36 10.81 78.17 12.03
  Q 98.34 18.51 114.67 31.85
  Q 129.60 44.53 139.49 60.81
  Q 142.34 66.06 144.73 71.26
  Q 147.87 78.07 149.98 85.09
  Q 157.37 110.95 152.44 137.23
  Q 151.90 140.15 149.98 147.25
  Q 145.94 160.21 139.42 171.48
  Q 139.36 171.59 139.53 172.03
  Q 138.96 172.09 138.63 172.63
  Q 128.82 188.35 114.94 200.46
  Q 91.84 218.89 60.44 225.19
  L 45.63 225.69
  Q 45.00 225.71 45.00 225.08
  L 44.99 201.04
  Q 44.99 200.49 45.54 200.51
  C 65.41 201.27 85.78 193.41 100.54 180.37
  Q 108.34 173.47 115.49 163.21
  C 128.40 144.66 132.59 120.91 128.02 99.01
  Q 121.99 70.03 99.51 51.31
  Q 76.46 32.13 45.55 31.61
  A 0.59 0.59 0.0 0 1 44.97 31.02
  L 45.01 7.43
  A 0.58 0.58 0.0 0 1 45.59 6.85
  L 55.78 6.96
  Z"
/>
<path fill="#a6a6a6" d="
  M 112.79 6.86
  L 112.12 7.06
  Q 111.39 7.28 112.04 7.69
  Q 127.19 17.15 139.88 31.45
  L 114.67 31.85
  Q 98.34 18.51 78.17 12.03
  C 74.36 10.81 69.60 9.88 65.35 8.74
  C 62.22 7.90 59.01 7.59 55.78 6.96
  L 112.79 6.86
  Z"
/>
<path fill="#d9d9d9" d="
  M 112.79 6.86
  Q 131.39 7.01 150.00 7.04
  Q 192.27 7.09 223.69 34.53
  C 266.89 72.27 272.93 137.28 238.18 182.24
  C 218.70 207.44 189.93 223.49 157.62 225.20
  Q 151.86 225.50 145.40 225.49
  Q 128.67 225.47 111.99 225.57
  L 112.09 225.04
  Q 112.18 224.52 112.62 224.24
  Q 127.36 214.79 139.22 202.05
  Q 139.55 201.69 140.03 201.60
  L 143.81 200.88
  Q 157.72 200.94 161.26 200.45
  Q 201.54 194.85 223.11 161.08
  Q 239.17 135.93 235.61 106.55
  Q 231.11 69.31 200.41 47.36
  Q 181.97 34.18 159.08 32.09
  Q 154.50 31.67 149.47 31.65
  Q 144.14 31.63 139.88 31.45
  Q 127.19 17.15 112.04 7.69
  Q 111.39 7.28 112.12 7.06
  L 112.79 6.86
  Z"
/>
<path fill="#000000" d="
  M 139.88 31.45
  Q 144.14 31.63 149.47 31.65
  Q 154.50 31.67 159.08 32.09
  Q 181.97 34.18 200.41 47.36
  Q 231.11 69.31 235.61 106.55
  Q 239.17 135.93 223.11 161.08
  Q 201.54 194.85 161.26 200.45
  Q 157.72 200.94 143.81 200.88
  L 115.13 200.69
  Q 115.00 200.69 114.98 200.57
  Q 114.88 200.01 114.94 200.46
  Q 128.82 188.35 138.63 172.63
  Q 138.96 172.09 139.53 172.03
  L 160.09 171.93
  C 183.83 169.54 203.58 151.77 208.86 129.09
  C 213.80 107.86 206.30 85.49 188.75 72.21
  Q 175.58 62.24 159.60 60.76
  L 139.49 60.81
  Q 129.60 44.53 114.67 31.85
  L 139.88 31.45
  Z"
/>
<path fill="#ececec" d="
  M 70.52 134.43
  C 79.49 122.13 77.91 104.08 66.83 93.72
  Q 57.94 85.40 45.85 85.08
  Q 45.25 85.07 45.25 84.47
  L 45.21 61.19
  Q 45.21 60.57 45.83 60.57
  C 62.90 60.58 80.18 69.55 90.13 83.16
  C 101.50 98.73 104.29 119.82 96.58 137.63
  C 87.57 158.42 68.47 171.53 45.78 171.97
  Q 45.26 171.98 45.26 171.46
  L 45.18 147.93
  Q 45.17 147.43 45.67 147.41
  Q 61.62 146.62 70.52 134.43
  Z"
/>
<path fill="#a6a6a6" d="
  M 159.60 60.76
  Q 166.52 73.45 169.30 88.69
  Q 161.99 85.71 159.25 85.54
  Q 155.01 85.27 149.98 85.09
  Q 147.87 78.07 144.73 71.26
  Q 142.34 66.06 139.49 60.81
  L 159.60 60.76
  Z"
/>
<path fill="#d9d9d9" d="
  M 159.60 60.76
  Q 175.58 62.24 188.75 72.21
  C 206.30 85.49 213.80 107.86 208.86 129.09
  C 203.58 151.77 183.83 169.54 160.09 171.93
  Q 166.15 158.14 169.66 143.53
  Q 178.63 138.49 182.83 129.76
  Q 190.87 113.04 179.58 97.46
  Q 176.06 92.60 169.30 88.69
  Q 166.52 73.45 159.60 60.76
  Z"
/>
<path fill="#000000" d="
  M 149.98 85.09
  Q 155.01 85.27 159.25 85.54
  Q 161.99 85.71 169.30 88.69
  Q 176.06 92.60 179.58 97.46
  Q 190.87 113.04 182.83 129.76
  Q 178.63 138.49 169.66 143.53
  Q 159.83 148.02 149.98 147.25
  Q 151.90 140.15 152.44 137.23
  Q 157.37 110.95 149.98 85.09
  Z"
/>
<path fill="#a6a6a6" d="
  M 169.66 143.53
  Q 166.15 158.14 160.09 171.93
  L 139.53 172.03
  Q 139.36 171.59 139.42 171.48
  Q 145.94 160.21 149.98 147.25
  Q 159.83 148.02 169.66 143.53
  Z"
/>
<path fill="#a6a6a6" d="
  M 114.94 200.46
  Q 114.88 200.01 114.98 200.57
  Q 115.00 200.69 115.13 200.69
  L 143.81 200.88
  L 140.03 201.60
  Q 139.55 201.69 139.22 202.05
  Q 127.36 214.79 112.62 224.24
  Q 112.18 224.52 112.09 225.04
  L 111.99 225.57
  Q 86.54 226.42 60.44 225.19
  Q 91.84 218.89 114.94 200.46
  Z"
/>
<path fill="#d9d9d9" d="
  M 12.52 258.39
  A 0.41 0.41 0.0 0 1 12.93 257.98
  L 32.29 258.02
  A 22.77 22.41 0.1 0 1 55.02 280.47
  L 55.02 280.59
  A 22.77 22.41 0.1 0 1 32.21 302.96
  L 12.85 302.92
  A 0.41 0.41 0.0 0 1 12.44 302.51
  L 12.52 258.39
  Z
  M 23.92 268.78
  L 23.92 292.34
  A 0.28 0.28 0.0 0 0 24.20 292.62
  L 31.46 292.62
  A 12.34 11.91 0.0 0 0 43.80 280.71
  L 43.80 280.41
  A 12.34 11.91 -0.0 0 0 31.46 268.50
  L 24.20 268.50
  A 0.28 0.28 0.0 0 0 23.92 268.78
  Z"
/>
<path fill="#d9d9d9" d="
  M 72.91 302.92
  L 61.65 302.90
  A 0.42 0.42 0.0 0 1 61.26 302.34
  L 77.33 258.31
  A 0.42 0.42 0.0 0 1 77.72 258.03
  L 89.20 258.00
  A 0.42 0.42 0.0 0 1 89.59 258.28
  L 105.73 302.34
  A 0.42 0.42 0.0 0 1 105.34 302.90
  L 94.04 302.90
  A 0.42 0.42 0.0 0 1 93.64 302.62
  L 91.27 295.76
  A 0.42 0.42 0.0 0 0 90.87 295.48
  L 76.14 295.50
  A 0.42 0.42 0.0 0 0 75.74 295.78
  L 73.31 302.64
  A 0.42 0.42 0.0 0 1 72.91 302.92
  Z
  M 79.96 284.34
  A 0.45 0.45 0.0 0 0 80.38 284.95
  L 86.56 284.97
  A 0.45 0.45 0.0 0 0 86.98 284.37
  L 83.92 275.81
  A 0.45 0.45 0.0 0 0 83.08 275.81
  L 79.96 284.34
  Z"
/>
<path fill="#d9d9d9" d="
  M 143.04 258.00
  L 153.73 258.00
  A 0.32 0.32 0.0 0 1 154.05 258.32
  L 154.05 302.60
  A 0.32 0.32 0.0 0 1 153.73 302.92
  L 144.69 302.88
  A 0.32 0.32 0.0 0 1 144.43 302.73
  L 129.19 278.80
  A 0.32 0.32 0.0 0 0 128.60 278.98
  L 128.70 302.56
  A 0.32 0.32 0.0 0 1 128.38 302.88
  L 117.56 302.93
  A 0.32 0.32 0.0 0 1 117.24 302.61
  L 117.23 258.32
  A 0.32 0.32 0.0 0 1 117.55 258.00
  L 128.44 258.02
  A 0.32 0.32 0.0 0 1 128.71 258.17
  L 142.14 279.27
  A 0.32 0.32 0.0 0 0 142.73 279.10
  L 142.72 258.32
  A 0.32 0.32 0.0 0 1 143.04 258.00
  Z"
/>
<rect fill="#d9d9d9" x="169.95" y="258.02" width="11.36" height="44.86" rx="0.26"/>
<path fill="#d9d9d9" d="
  M 222.17 295.50
  L 207.26 295.48
  A 0.35 0.35 0.0 0 0 206.93 295.72
  L 204.50 302.67
  A 0.35 0.35 0.0 0 1 204.17 302.91
  L 192.76 302.89
  A 0.35 0.35 0.0 0 1 192.43 302.42
  L 208.55 258.22
  A 0.35 0.35 0.0 0 1 208.88 257.99
  L 220.45 258.02
  A 0.35 0.35 0.0 0 1 220.77 258.25
  L 236.93 302.36
  A 0.35 0.35 0.0 0 1 236.60 302.83
  L 225.15 302.92
  A 0.35 0.35 0.0 0 1 224.82 302.68
  L 222.50 295.74
  A 0.35 0.35 0.0 0 0 222.17 295.50
  Z
  M 211.14 284.42
  A 0.40 0.40 0.0 0 0 211.51 284.95
  L 217.79 284.99
  A 0.40 0.40 0.0 0 0 218.17 284.45
  L 215.08 275.57
  A 0.40 0.40 0.0 0 0 214.32 275.56
  L 211.14 284.42
  Z"
/>
<path fill="#d9d9d9" d="
  M 282.43 279.84
  Q 282.43 278.66 281.82 279.67
  L 272.85 294.60
  A 2.46 2.45 -45.0 0 1 268.64 294.60
  L 259.76 279.78
  Q 259.10 278.68 259.11 279.97
  L 259.25 302.30
  Q 259.25 302.86 258.70 302.86
  L 248.33 302.92
  Q 247.75 302.92 247.74 302.33
  L 247.72 258.65
  A 0.63 0.62 -0.0 0 1 248.35 258.03
  L 258.54 258.02
  A 1.09 1.08 -15.7 0 1 259.49 258.55
  L 270.04 276.18
  A 0.79 0.78 -44.9 0 0 271.39 276.18
  L 281.60 259.07
  A 2.23 2.23 0.0 0 1 283.51 257.99
  L 293.03 258.02
  Q 293.54 258.02 293.54 258.53
  L 293.53 302.31
  Q 293.53 302.90 292.94 302.90
  L 283.02 302.90
  Q 282.40 302.90 282.40 302.28
  L 282.43 279.84
  Z"
/>
<path fill="#000000" d="
  M 23.92 268.78
  A 0.28 0.28 0.0 0 1 24.20 268.50
  L 31.46 268.50
  A 12.34 11.91 -0.0 0 1 43.80 280.41
  L 43.80 280.71
  A 12.34 11.91 -0.0 0 1 31.46 292.62
  L 24.20 292.62
  A 0.28 0.28 0.0 0 1 23.92 292.34
  L 23.92 268.78
  Z"
/>
<path fill="#000000" d="
  M 211.14 284.42
  L 214.32 275.56
  A 0.40 0.40 0.0 0 1 215.08 275.57
  L 218.17 284.45
  A 0.40 0.40 0.0 0 1 217.79 284.99
  L 211.51 284.95
  A 0.40 0.40 0.0 0 1 211.14 284.42
  Z"
/>
<path fill="#000000" d="
  M 79.96 284.34
  L 83.08 275.81
  A 0.45 0.45 0.0 0 1 83.92 275.81
  L 86.98 284.37
  A 0.45 0.45 0.0 0 1 86.56 284.97
  L 80.38 284.95
  A 0.45 0.45 0.0 0 1 79.96 284.34
  Z"
/>
</svg>
