<svg width="308" height="160" viewBox="0 0 308 160" fill="none" xmlns="http://www.w3.org/2000/svg">
<rect width="308" height="160" rx="4" fill="white"/>
<g clip-path="url(#clip0_251_2063)">
<path d="M129.688 62.6505V84.2968H125.45V70.2583L119.347 80.3014L118.848 80.319L112.772 70.3111V84.2968H108.506V62.6505H112.898L119.104 72.8728L125.278 62.6505H129.688Z" fill="#2356F6"/>
<path d="M133.708 62.6505H137.974V84.2968H133.708V62.6505Z" fill="#2356F6"/>
<path d="M154.518 62.6505H158.784V84.2968H155.537L146.26 71.0631V84.2968H141.994V62.6505H145.238L154.518 75.8386V62.6505Z" fill="#2356F6"/>
<path d="M171.403 62.6505C174.372 62.6505 176.85 63.6907 178.839 65.7745C180.827 67.8583 181.822 70.4235 181.822 73.4737C181.822 76.5238 180.827 79.0926 178.839 81.1729C176.85 83.2567 174.369 84.2968 171.403 84.2968H162.808V62.6505H171.403ZM171.403 80.2135C173.279 80.2135 174.804 79.5916 175.978 78.3441C177.152 77.0966 177.742 75.4731 177.742 73.4737C177.742 71.4742 177.155 69.8507 175.978 68.6032C174.804 67.3558 173.276 66.7338 171.403 66.7338H167.074V80.2171H171.403V80.2135Z" fill="#2356F6"/>
<path d="M188.081 84.2968L182.35 62.6505H186.812L190.977 78.699L195.492 62.6505H199.189L203.722 78.6568L207.83 62.6505H211.941L206.252 84.2968H201.396L197.295 69.9351L193.222 84.2968H188.077H188.081Z" fill="#2356F6"/>
<path d="M214.787 62.6505H219.053V84.2968H214.787V62.6505Z" fill="#2356F6"/>
<path d="M230.126 84.729C227.982 84.729 226.176 84.2511 224.714 83.2918C223.249 82.3325 222.219 81.0288 221.622 79.3807L225.27 77.2477C226.116 79.4545 227.775 80.5579 230.249 80.5579C231.444 80.5579 232.322 80.34 232.877 79.9078C233.433 79.4756 233.714 78.9274 233.714 78.2703C233.714 77.5078 233.373 76.9139 232.695 76.4922C232.013 76.0705 230.797 75.6102 229.047 75.1147C228.077 74.8266 227.259 74.5384 226.587 74.2503C225.916 73.9621 225.249 73.5756 224.577 73.0906C223.906 72.6057 223.397 71.9943 223.045 71.2493C222.694 70.5078 222.518 69.6399 222.518 68.6524C222.518 66.6951 223.214 65.1314 224.605 63.9683C225.997 62.8051 227.673 62.2218 229.63 62.2218C231.384 62.2218 232.923 62.6505 234.255 63.5044C235.583 64.3583 236.62 65.5496 237.361 67.0747L233.774 69.1479C232.909 67.2925 231.528 66.3648 229.63 66.3648C228.745 66.3648 228.049 66.5651 227.543 66.9692C227.037 67.3698 226.784 67.8934 226.784 68.5295C226.784 69.2112 227.069 69.7629 227.635 70.1846C228.2 70.6062 229.29 71.0666 230.896 71.562C231.556 71.7694 232.055 71.9275 232.396 72.04C232.737 72.1524 233.201 72.3281 233.788 72.5671C234.374 72.8025 234.828 73.0274 235.147 73.2312C235.467 73.4385 235.833 73.7161 236.244 74.0675C236.655 74.4189 236.971 74.7774 237.186 75.1499C237.403 75.5223 237.586 75.9686 237.741 76.4957C237.895 77.0228 237.973 77.5921 237.973 78.2106C237.973 80.21 237.245 81.7984 235.794 82.972C234.339 84.1457 232.449 84.7361 230.119 84.7361L230.126 84.729Z" fill="#2356F6"/>
<path d="M244.877 80.2135H254V84.2968H240.611V62.6505H253.845V66.7338H244.877V71.3407H253.072V75.3607H244.877V80.2171V80.2135Z" fill="#2356F6"/>
<path d="M143.765 90.4709V91.2757H141.875V96.8664H141.035V91.2757H139.151V90.4709H143.765Z" fill="#2356F6"/>
<path d="M148.562 90.4709H149.402V96.8664H148.562V93.9885H145.456V96.8664H144.605V90.4709H145.456V93.1838H148.562V90.4709Z" fill="#2356F6"/>
<path d="M151.623 96.0617H154.592V96.8664H150.772V90.4709H154.547V91.2757H151.623V93.24H154.318V94.0342H151.623V96.0617Z" fill="#2356F6"/>
<path d="M161.581 91.2722H158.749V93.3454H161.462V94.1502H158.749V96.863H157.898V90.4675H161.581V91.2722Z" fill="#2356F6"/>
<path d="M166.659 96.3675C166.216 96.7786 165.64 96.9824 164.934 96.9824C164.228 96.9824 163.651 96.7786 163.201 96.3675C162.755 95.9563 162.53 95.4081 162.53 94.7194V90.4709H163.381V94.6842C163.381 95.134 163.514 95.4925 163.781 95.756C164.048 96.0196 164.431 96.1531 164.934 96.1531C165.436 96.1531 165.816 96.0196 166.086 95.756C166.354 95.4925 166.487 95.134 166.487 94.6842V90.4709H167.327V94.7194C167.327 95.4081 167.106 95.9563 166.659 96.3675Z" fill="#2356F6"/>
<path d="M172.717 90.4709V91.2757H170.827V96.8664H169.987V91.2757H168.104V90.4709H172.717Z" fill="#2356F6"/>
<path d="M177.606 96.3675C177.163 96.7786 176.586 96.9824 175.88 96.9824C175.174 96.9824 174.598 96.7786 174.148 96.3675C173.701 95.9563 173.477 95.4081 173.477 94.7194V90.4709H174.327V94.6842C174.327 95.134 174.46 95.4925 174.728 95.756C174.995 96.0196 175.378 96.1531 175.88 96.1531C176.383 96.1531 176.762 96.0196 177.033 95.756C177.3 95.4925 177.433 95.134 177.433 94.6842V90.4709H178.273V94.7194C178.273 95.4081 178.052 95.9563 177.606 96.3675Z" fill="#2356F6"/>
<path d="M183.361 96.8664L181.927 94.4172H180.42V96.8664H179.569V90.4709H182.128C182.676 90.4709 183.143 90.6642 183.533 91.0508C183.923 91.4373 184.116 91.9047 184.116 92.4528C184.116 92.8675 183.993 93.2435 183.748 93.5844C183.502 93.9252 183.182 94.1677 182.792 94.3047L184.299 96.8629H183.357L183.361 96.8664ZM180.42 91.2651V93.6511H182.128C182.444 93.6511 182.714 93.5352 182.936 93.2997C183.157 93.0643 183.27 92.7832 183.27 92.4528C183.27 92.1225 183.157 91.8449 182.936 91.613C182.714 91.3811 182.444 91.2651 182.128 91.2651H180.42Z" fill="#2356F6"/>
<path d="M186.001 96.0617H188.97V96.8664H185.15V90.4709H188.924V91.2757H186.001V93.24H188.696V94.0342H186.001V96.0617Z" fill="#2356F6"/>
<path d="M192.28 90.4709H193.131V96.8664H192.28V90.4709Z" fill="#2356F6"/>
<path d="M196.462 96.9824C195.864 96.9824 195.355 96.8419 194.93 96.5607C194.504 96.2796 194.209 95.8966 194.037 95.4081L194.768 94.9865C195.018 95.7595 195.587 96.1461 196.476 96.1461C196.915 96.1461 197.249 96.0547 197.481 95.8755C197.713 95.6963 197.829 95.4573 197.829 95.1587C197.829 94.86 197.713 94.6245 197.481 94.4734C197.249 94.3223 196.862 94.1607 196.321 93.9885C196.054 93.8971 195.854 93.8268 195.71 93.7776C195.569 93.7285 195.394 93.6511 195.183 93.5457C194.972 93.4403 194.817 93.3279 194.712 93.2154C194.61 93.103 194.515 92.9554 194.434 92.7726C194.353 92.5899 194.311 92.3826 194.311 92.1507C194.311 91.5954 194.504 91.1562 194.895 90.8294C195.285 90.5026 195.759 90.3409 196.321 90.3409C196.827 90.3409 197.266 90.4674 197.642 90.724C198.018 90.9805 198.3 91.3178 198.486 91.7395L197.773 92.1507C197.498 91.4935 197.013 91.1632 196.321 91.1632C195.973 91.1632 195.692 91.2476 195.481 91.4197C195.267 91.5884 195.162 91.8203 195.162 92.112C195.162 92.4037 195.263 92.604 195.464 92.7516C195.664 92.8991 196.012 93.0502 196.504 93.2084C196.676 93.2681 196.799 93.3138 196.876 93.3384C196.954 93.363 197.066 93.4052 197.221 93.4614C197.375 93.5176 197.491 93.5633 197.565 93.5984C197.639 93.6336 197.737 93.6863 197.86 93.753C197.983 93.8198 198.078 93.8831 198.138 93.9463C198.198 94.0096 198.271 94.0834 198.352 94.1712C198.433 94.2591 198.493 94.3504 198.532 94.4418C198.567 94.5332 198.602 94.6386 198.626 94.7581C198.651 94.8775 198.669 95.004 198.669 95.1376C198.669 95.6963 198.465 96.1426 198.057 96.4764C197.65 96.8102 197.115 96.9754 196.458 96.9754L196.462 96.9824Z" fill="#2356F6"/>
<path d="M205.939 90.4709H206.79V96.8664H206.104L202.815 92.0874V96.8664H201.965V90.4709H202.622L205.939 95.2746V90.4709Z" fill="#2356F6"/>
<path d="M213.48 96.0161C212.837 96.6627 212.053 96.986 211.129 96.986C210.205 96.986 209.421 96.6627 208.782 96.0161C208.142 95.3695 207.822 94.5894 207.822 93.6687C207.822 92.7481 208.142 91.9574 208.782 91.3143C209.421 90.6713 210.205 90.3515 211.129 90.3515C212.053 90.3515 212.84 90.6748 213.48 91.3143C214.123 91.9574 214.443 92.741 214.443 93.6687C214.443 94.5964 214.123 95.3695 213.48 96.0161ZM209.368 95.4363C209.839 95.9142 210.426 96.1531 211.129 96.1531C211.832 96.1531 212.415 95.9142 212.886 95.4363C213.357 94.9584 213.592 94.368 213.592 93.6687C213.592 92.9694 213.357 92.3685 212.886 91.8906C212.415 91.4127 211.828 91.1738 211.129 91.1738C210.43 91.1738 209.843 91.4127 209.368 91.8906C208.898 92.3685 208.662 92.9624 208.662 93.6687C208.662 94.375 208.898 94.9584 209.368 95.4363Z" fill="#2356F6"/>
<path d="M216.516 96.8664L214.728 90.4709H215.62L217.085 95.7349L218.639 90.4709H219.496L221.049 95.7349L222.511 90.4709H223.358L221.573 96.8664H220.585L219.064 91.743L217.542 96.8664H216.516Z" fill="#2356F6"/>
<path d="M97.4191 74.3276C95.9573 74.3276 94.636 74.9215 93.6802 75.8843L87.2425 71.3372C87.5729 70.6484 87.7661 69.8753 87.7661 69.0601C87.7661 66.1505 85.4047 63.7891 82.4951 63.7891C80.4113 63.7891 78.6121 65.0014 77.7582 66.7619L64.5034 62.8895C64.528 62.6892 64.542 62.4854 64.542 62.2745C64.542 59.3614 62.1806 57 59.271 57C56.3614 57 54 59.3614 54 62.271C54 65.1806 56.3614 67.542 59.271 67.542C60.2374 67.542 61.1405 67.2785 61.9206 66.8217L68.3372 74.5209L63.6424 76.6504C62.6937 75.2483 61.0913 74.3276 59.271 74.3276C56.3614 74.3276 54 76.689 54 79.5986C54 82.5082 56.3614 84.8696 59.271 84.8696C61.0913 84.8696 62.6937 83.949 63.6424 82.5469L68.3372 84.6764L61.9206 92.3756C61.1405 91.9222 60.2374 91.6552 59.271 91.6552C56.3614 91.6552 54 94.0166 54 96.9262C54 99.8358 56.3614 102.197 59.271 102.197C62.1806 102.197 64.542 99.8358 64.542 96.9262C64.542 96.7189 64.528 96.5151 64.5034 96.3113L77.7582 92.4388C78.6121 94.1958 80.4113 95.4117 82.4951 95.4117C85.4047 95.4117 87.7661 93.0502 87.7661 90.1406C87.7661 89.3219 87.5764 88.5523 87.2425 87.8636L93.6802 83.3164C94.636 84.2758 95.9573 84.8731 97.4191 84.8731C100.329 84.8731 102.69 82.5117 102.69 79.6021C102.69 76.6925 100.329 74.3311 97.4191 74.3311V74.3276ZM78.1272 87.1924L71.1624 84.0298L73.7136 80.9691L78.4997 86.711C78.3697 86.8656 78.2432 87.0237 78.1307 87.1889L78.1272 87.1924ZM71.1624 75.1674L78.1272 72.0048C78.2397 72.1735 78.3662 72.3316 78.4962 72.4827L73.7101 78.2246L71.1589 75.1639L71.1624 75.1674ZM63.27 65.6972C63.5616 65.3563 63.8076 64.9768 64.0079 64.5692L77.2628 68.4416C77.2382 68.6419 77.2241 68.8492 77.2241 69.0566C77.2241 69.5239 77.2909 69.9737 77.4033 70.4024L69.9923 73.7654L63.2664 65.6972H63.27ZM64.3628 80.9445C64.4753 80.5158 64.542 80.066 64.542 79.5986C64.542 79.1312 64.4753 78.6815 64.3628 78.2527L69.5038 75.9194L72.5716 79.5986L69.5073 83.2778L64.3663 80.9445H64.3628ZM64.0079 94.628C63.8111 94.2204 63.5616 93.8409 63.27 93.5L69.9958 85.4319L77.4068 88.7948C77.2944 89.2235 77.2276 89.6733 77.2276 90.1406C77.2276 90.348 77.2417 90.5518 77.2663 90.7556L64.0114 94.628H64.0079ZM86.234 86.4263C85.2782 85.467 83.9569 84.8731 82.4951 84.8731C81.5288 84.8731 80.6257 85.1367 79.8456 85.5935L74.8521 79.6021L79.8456 73.6107C80.6257 74.064 81.5288 74.3311 82.4951 74.3311C83.9569 74.3311 85.2782 73.7372 86.234 72.7744L92.6717 77.3215C92.3414 78.0103 92.1481 78.7834 92.1481 79.5986C92.1481 80.4139 92.3379 81.1869 92.6717 81.8757L86.234 86.4228V86.4263Z" fill="#2356F6"/>
</g>
<defs>
<clipPath id="clip0_251_2063">
<rect width="200" height="45.2007" fill="white" transform="translate(54 57)"/>
</clipPath>
</defs>
</svg>
