<svg width="80" height="80" viewBox="0 0 80 80" fill="none" xmlns="http://www.w3.org/2000/svg">
<mask id="mask0_135_566" style="mask-type:alpha" maskUnits="userSpaceOnUse" x="0" y="0" width="80" height="80">
<rect width="80" height="80" fill="#D9D9D9"/>
</mask>
<g mask="url(#mask0_135_566)">
<path d="M15 70C13.6667 70 12.5 69.5 11.5 68.5C10.5 67.5 10 66.3333 10 65V53.1667C10 52.4583 10.241 51.8646 10.7229 51.3854C11.2049 50.9062 11.8021 50.6667 12.5146 50.6667C13.2271 50.6667 13.8194 50.9062 14.2917 51.3854C14.7639 51.8646 15 52.4583 15 53.1667V65H26.8333C27.5417 65 28.1354 65.241 28.6146 65.7229C29.0938 66.2049 29.3333 66.8021 29.3333 67.5146C29.3333 68.2271 29.0938 68.8194 28.6146 69.2917C28.1354 69.7639 27.5417 70 26.8333 70H15ZM53.1667 70C52.4583 70 51.8646 69.759 51.3854 69.2771C50.9062 68.7951 50.6667 68.1979 50.6667 67.4854C50.6667 66.7729 50.9062 66.1806 51.3854 65.7083C51.8646 65.2361 52.4583 65 53.1667 65H65V53.1667C65 52.4583 65.241 51.8646 65.7229 51.3854C66.2049 50.9062 66.8021 50.6667 67.5146 50.6667C68.2271 50.6667 68.8194 50.9062 69.2917 51.3854C69.7639 51.8646 70 52.4583 70 53.1667V65C70 66.3333 69.5 67.5 68.5 68.5C67.5 69.5 66.3333 70 65 70H53.1667ZM24.9167 40L30.4167 45.5C30.9167 46 31.1667 46.5877 31.1667 47.2632C31.1667 47.9386 30.9275 48.5219 30.4492 49.0132C29.9275 49.5044 29.3204 49.75 28.6278 49.75C27.9352 49.75 27.3371 49.5 26.8333 49L19.5833 41.75C19.0833 41.25 18.8333 40.6667 18.8333 40C18.8333 39.3333 19.0833 38.75 19.5833 38.25L26.9167 30.9167C27.4167 30.4167 28 30.1806 28.6667 30.2083C29.3333 30.2361 29.9275 30.5 30.4492 31C30.9275 31.5 31.1667 32.0833 31.1667 32.75C31.1667 33.4167 30.9167 34 30.4167 34.5L24.9167 40ZM55.0833 40L49.5833 34.5C49.0833 34 48.8333 33.4123 48.8333 32.7368C48.8333 32.0614 49.0725 31.4781 49.5508 30.9868C50.0725 30.4956 50.6796 30.25 51.3722 30.25C52.0648 30.25 52.6629 30.5 53.1667 31L60.4167 38.25C60.9167 38.75 61.1667 39.3333 61.1667 40C61.1667 40.6667 60.9167 41.25 60.4167 41.75L53.0833 49.0833C52.5833 49.5833 52 49.8194 51.3333 49.7917C50.6667 49.7639 50.0725 49.5 49.5508 49C49.0725 48.5 48.8333 47.9167 48.8333 47.25C48.8333 46.5833 49.0833 46 49.5833 45.5L55.0833 40ZM12.4854 29.3333C11.7729 29.3333 11.1806 29.0938 10.7083 28.6146C10.2361 28.1354 10 27.5417 10 26.8333V15C10 13.6667 10.5 12.5 11.5 11.5C12.5 10.5 13.6667 10 15 10H26.8333C27.5417 10 28.1354 10.241 28.6146 10.7229C29.0938 11.2049 29.3333 11.8021 29.3333 12.5146C29.3333 13.2271 29.0938 13.8194 28.6146 14.2917C28.1354 14.7639 27.5417 15 26.8333 15H15V26.8333C15 27.5417 14.759 28.1354 14.2771 28.6146C13.7951 29.0938 13.1979 29.3333 12.4854 29.3333ZM67.4854 29.3333C66.7729 29.3333 66.1806 29.0938 65.7083 28.6146C65.2361 28.1354 65 27.5417 65 26.8333V15H53.1667C52.4583 15 51.8646 14.759 51.3854 14.2771C50.9062 13.7951 50.6667 13.1979 50.6667 12.4854C50.6667 11.7729 50.9062 11.1806 51.3854 10.7083C51.8646 10.2361 52.4583 10 53.1667 10H65C66.3333 10 67.5 10.5 68.5 11.5C69.5 12.5 70 13.6667 70 15V26.8333C70 27.5417 69.759 28.1354 69.2771 28.6146C68.7951 29.0938 68.1979 29.3333 67.4854 29.3333Z" fill="white"/>
<path d="M15 70C13.6667 70 12.5 69.5 11.5 68.5C10.5 67.5 10 66.3333 10 65V53.1667C10 52.4583 10.241 51.8646 10.7229 51.3854C11.2049 50.9062 11.8021 50.6667 12.5146 50.6667C13.2271 50.6667 13.8194 50.9062 14.2917 51.3854C14.7639 51.8646 15 52.4583 15 53.1667V65H26.8333C27.5417 65 28.1354 65.241 28.6146 65.7229C29.0938 66.2049 29.3333 66.8021 29.3333 67.5146C29.3333 68.2271 29.0938 68.8194 28.6146 69.2917C28.1354 69.7639 27.5417 70 26.8333 70H15ZM53.1667 70C52.4583 70 51.8646 69.759 51.3854 69.2771C50.9062 68.7951 50.6667 68.1979 50.6667 67.4854C50.6667 66.7729 50.9062 66.1806 51.3854 65.7083C51.8646 65.2361 52.4583 65 53.1667 65H65V53.1667C65 52.4583 65.241 51.8646 65.7229 51.3854C66.2049 50.9062 66.8021 50.6667 67.5146 50.6667C68.2271 50.6667 68.8194 50.9062 69.2917 51.3854C69.7639 51.8646 70 52.4583 70 53.1667V65C70 66.3333 69.5 67.5 68.5 68.5C67.5 69.5 66.3333 70 65 70H53.1667ZM24.9167 40L30.4167 45.5C30.9167 46 31.1667 46.5877 31.1667 47.2632C31.1667 47.9386 30.9275 48.5219 30.4492 49.0132C29.9275 49.5044 29.3204 49.75 28.6278 49.75C27.9352 49.75 27.3371 49.5 26.8333 49L19.5833 41.75C19.0833 41.25 18.8333 40.6667 18.8333 40C18.8333 39.3333 19.0833 38.75 19.5833 38.25L26.9167 30.9167C27.4167 30.4167 28 30.1806 28.6667 30.2083C29.3333 30.2361 29.9275 30.5 30.4492 31C30.9275 31.5 31.1667 32.0833 31.1667 32.75C31.1667 33.4167 30.9167 34 30.4167 34.5L24.9167 40ZM55.0833 40L49.5833 34.5C49.0833 34 48.8333 33.4123 48.8333 32.7368C48.8333 32.0614 49.0725 31.4781 49.5508 30.9868C50.0725 30.4956 50.6796 30.25 51.3722 30.25C52.0648 30.25 52.6629 30.5 53.1667 31L60.4167 38.25C60.9167 38.75 61.1667 39.3333 61.1667 40C61.1667 40.6667 60.9167 41.25 60.4167 41.75L53.0833 49.0833C52.5833 49.5833 52 49.8194 51.3333 49.7917C50.6667 49.7639 50.0725 49.5 49.5508 49C49.0725 48.5 48.8333 47.9167 48.8333 47.25C48.8333 46.5833 49.0833 46 49.5833 45.5L55.0833 40ZM12.4854 29.3333C11.7729 29.3333 11.1806 29.0938 10.7083 28.6146C10.2361 28.1354 10 27.5417 10 26.8333V15C10 13.6667 10.5 12.5 11.5 11.5C12.5 10.5 13.6667 10 15 10H26.8333C27.5417 10 28.1354 10.241 28.6146 10.7229C29.0938 11.2049 29.3333 11.8021 29.3333 12.5146C29.3333 13.2271 29.0938 13.8194 28.6146 14.2917C28.1354 14.7639 27.5417 15 26.8333 15H15V26.8333C15 27.5417 14.759 28.1354 14.2771 28.6146C13.7951 29.0938 13.1979 29.3333 12.4854 29.3333ZM67.4854 29.3333C66.7729 29.3333 66.1806 29.0938 65.7083 28.6146C65.2361 28.1354 65 27.5417 65 26.8333V15H53.1667C52.4583 15 51.8646 14.759 51.3854 14.2771C50.9062 13.7951 50.6667 13.1979 50.6667 12.4854C50.6667 11.7729 50.9062 11.1806 51.3854 10.7083C51.8646 10.2361 52.4583 10 53.1667 10H65C66.3333 10 67.5 10.5 68.5 11.5C69.5 12.5 70 13.6667 70 15V26.8333C70 27.5417 69.759 28.1354 69.2771 28.6146C68.7951 29.0938 68.1979 29.3333 67.4854 29.3333Z" fill="url(#paint0_linear_135_566)"/>
</g>
<defs>
<linearGradient id="paint0_linear_135_566" x1="70" y1="70" x2="10" y2="70" gradientUnits="userSpaceOnUse">
<stop stop-color="#000000"/>
<stop offset="1" stop-color="#ffffff"/>
</linearGradient>
</defs>
</svg>
