<svg width="81" height="80" viewBox="0 0 81 80" fill="none" xmlns="http://www.w3.org/2000/svg">
<mask id="mask0_135_596" style="mask-type:alpha" maskUnits="userSpaceOnUse" x="0" y="0" width="81" height="80">
<rect x="0.333496" width="80" height="80" fill="white"/>
<rect x="0.333496" width="80" height="80" fill="url(#paint0_linear_135_596)"/>
</mask>
<g mask="url(#mask0_135_596)">
<path d="M38.5832 25.8333L31.6665 18.8333C31.1665 18.3333 30.9165 17.75 30.9165 17.0833C30.9165 16.4166 31.1665 15.8333 31.6665 15.3333L38.5832 8.33331C39.0832 7.83331 39.6665 7.58331 40.3332 7.58331C40.9998 7.58331 41.5832 7.83331 42.0832 8.33331L49.0832 15.3333C49.5832 15.8333 49.8332 16.4166 49.8332 17.0833C49.8332 17.75 49.5832 18.3333 49.0832 18.8333L42.0832 25.8333C41.5832 26.3333 40.9998 26.5833 40.3332 26.5833C39.6665 26.5833 39.0832 26.3333 38.5832 25.8333ZM6.1665 66.6666C5.44428 66.6666 4.84706 66.4305 4.37484 65.9583C3.90262 65.4861 3.6665 64.8889 3.6665 64.1666V53.3333C3.6665 51.7222 4.23595 50.3472 5.37484 49.2083C6.51373 48.0694 7.88873 47.5 9.49984 47.5H21.2498C22.1943 47.5 23.0971 47.7361 23.9582 48.2083C24.8193 48.6805 25.5554 49.3333 26.1665 50.1666C27.7776 52.5 29.8332 54.3055 32.3332 55.5833C34.8332 56.8611 37.4998 57.5 40.3332 57.5C43.1665 57.5 45.8332 56.8611 48.3332 55.5833C50.8332 54.3055 52.9165 52.5 54.5832 50.1666C55.1943 49.3333 55.9165 48.6805 56.7498 48.2083C57.5832 47.7361 58.4721 47.5 59.4165 47.5H71.1665C72.7776 47.5 74.1526 48.0694 75.2915 49.2083C76.4304 50.3472 76.9998 51.7222 76.9998 53.3333V64.1666C76.9998 64.8889 76.7637 65.4861 76.2915 65.9583C75.8193 66.4305 75.2221 66.6666 74.4998 66.6666H57.8332C57.111 66.6666 56.5137 66.4305 56.0415 65.9583C55.5693 65.4861 55.3332 64.8889 55.3332 64.1666V56.75C53.3332 58.5833 51.0415 60 48.4582 61C45.8748 62 43.1665 62.5 40.3332 62.5C37.4998 62.5 34.8054 62 32.2498 61C29.6943 60 27.3887 58.5833 25.3332 56.75V64.1666C25.3332 64.8889 25.0971 65.4861 24.6248 65.9583C24.1526 66.4305 23.5554 66.6666 22.8332 66.6666H6.1665ZM13.6665 41.6666C11.1665 41.6666 9.01373 40.7639 7.20817 38.9583C5.40262 37.1528 4.49984 35 4.49984 32.5C4.49984 29.9444 5.40262 27.7778 7.20817 26C9.01373 24.2222 11.1665 23.3333 13.6665 23.3333C16.2221 23.3333 18.3887 24.2222 20.1665 26C21.9443 27.7778 22.8332 29.9444 22.8332 32.5C22.8332 35 21.9443 37.1528 20.1665 38.9583C18.3887 40.7639 16.2221 41.6666 13.6665 41.6666ZM66.9998 41.6666C64.4998 41.6666 62.3471 40.7639 60.5415 38.9583C58.736 37.1528 57.8332 35 57.8332 32.5C57.8332 29.9444 58.736 27.7778 60.5415 26C62.3471 24.2222 64.4998 23.3333 66.9998 23.3333C69.5554 23.3333 71.7221 24.2222 73.4998 26C75.2776 27.7778 76.1665 29.9444 76.1665 32.5C76.1665 35 75.2776 37.1528 73.4998 38.9583C71.7221 40.7639 69.5554 41.6666 66.9998 41.6666Z" fill="white"/>
<path d="M38.5832 25.8333L31.6665 18.8333C31.1665 18.3333 30.9165 17.75 30.9165 17.0833C30.9165 16.4166 31.1665 15.8333 31.6665 15.3333L38.5832 8.33331C39.0832 7.83331 39.6665 7.58331 40.3332 7.58331C40.9998 7.58331 41.5832 7.83331 42.0832 8.33331L49.0832 15.3333C49.5832 15.8333 49.8332 16.4166 49.8332 17.0833C49.8332 17.75 49.5832 18.3333 49.0832 18.8333L42.0832 25.8333C41.5832 26.3333 40.9998 26.5833 40.3332 26.5833C39.6665 26.5833 39.0832 26.3333 38.5832 25.8333ZM6.1665 66.6666C5.44428 66.6666 4.84706 66.4305 4.37484 65.9583C3.90262 65.4861 3.6665 64.8889 3.6665 64.1666V53.3333C3.6665 51.7222 4.23595 50.3472 5.37484 49.2083C6.51373 48.0694 7.88873 47.5 9.49984 47.5H21.2498C22.1943 47.5 23.0971 47.7361 23.9582 48.2083C24.8193 48.6805 25.5554 49.3333 26.1665 50.1666C27.7776 52.5 29.8332 54.3055 32.3332 55.5833C34.8332 56.8611 37.4998 57.5 40.3332 57.5C43.1665 57.5 45.8332 56.8611 48.3332 55.5833C50.8332 54.3055 52.9165 52.5 54.5832 50.1666C55.1943 49.3333 55.9165 48.6805 56.7498 48.2083C57.5832 47.7361 58.4721 47.5 59.4165 47.5H71.1665C72.7776 47.5 74.1526 48.0694 75.2915 49.2083C76.4304 50.3472 76.9998 51.7222 76.9998 53.3333V64.1666C76.9998 64.8889 76.7637 65.4861 76.2915 65.9583C75.8193 66.4305 75.2221 66.6666 74.4998 66.6666H57.8332C57.111 66.6666 56.5137 66.4305 56.0415 65.9583C55.5693 65.4861 55.3332 64.8889 55.3332 64.1666V56.75C53.3332 58.5833 51.0415 60 48.4582 61C45.8748 62 43.1665 62.5 40.3332 62.5C37.4998 62.5 34.8054 62 32.2498 61C29.6943 60 27.3887 58.5833 25.3332 56.75V64.1666C25.3332 64.8889 25.0971 65.4861 24.6248 65.9583C24.1526 66.4305 23.5554 66.6666 22.8332 66.6666H6.1665ZM13.6665 41.6666C11.1665 41.6666 9.01373 40.7639 7.20817 38.9583C5.40262 37.1528 4.49984 35 4.49984 32.5C4.49984 29.9444 5.40262 27.7778 7.20817 26C9.01373 24.2222 11.1665 23.3333 13.6665 23.3333C16.2221 23.3333 18.3887 24.2222 20.1665 26C21.9443 27.7778 22.8332 29.9444 22.8332 32.5C22.8332 35 21.9443 37.1528 20.1665 38.9583C18.3887 40.7639 16.2221 41.6666 13.6665 41.6666ZM66.9998 41.6666C64.4998 41.6666 62.3471 40.7639 60.5415 38.9583C58.736 37.1528 57.8332 35 57.8332 32.5C57.8332 29.9444 58.736 27.7778 60.5415 26C62.3471 24.2222 64.4998 23.3333 66.9998 23.3333C69.5554 23.3333 71.7221 24.2222 73.4998 26C75.2776 27.7778 76.1665 29.9444 76.1665 32.5C76.1665 35 75.2776 37.1528 73.4998 38.9583C71.7221 40.7639 69.5554 41.6666 66.9998 41.6666Z" fill="url(#paint1_linear_135_596)"/>
</g>
<defs>
<linearGradient id="paint0_linear_135_596" x1="80.3335" y1="80" x2="0.333497" y2="80" gradientUnits="userSpaceOnUse">
<stop stop-color="#D75587"/>
<stop offset="1" stop-color="#362CAF"/>
</linearGradient>
<linearGradient id="paint1_linear_135_596" x1="76.9998" y1="66.6667" x2="3.6665" y2="66.6667" gradientUnits="userSpaceOnUse">
<stop stop-color="#000000"/>
<stop offset="1" stop-color="#ffffff"/>
</linearGradient>
</defs>
</svg>
